<?xml version="1.0" encoding="UTF-8"?>
<svg width="1071.66px" height="598.389678px" viewBox="0 0 1071.66 598.389678" version="1.1" xmlns="http://www.w3.org/2000/svg" xmlns:xlink="http://www.w3.org/1999/xlink">
    <title>LOGO SEH</title>
    <g id="Page-1" stroke="none" stroke-width="1" fill="none" fill-rule="evenodd">
        <g id="LOGO-SEH">
            <path d="M344.59,348.72 C370.423333,408.72 399.256667,447.803333 431.09,465.97 C478.84,493.22 499.34,498.97 532.84,498.97 C553.385126,498.97 589.098452,490.606643 638.84,476.22 C641.72627,475.38521 645.97627,474.468543 651.59,473.47 C664.756667,472.303333 672.09,482.72 673.59,504.72 C675.84,537.72 662.84,560.22 656.59,564.47 C650.34,568.72 604.59,588.97 562.09,595.72 C519.59,602.47 485.09,594.97 460.34,589.22 C435.59,583.47 408.84,568.97 378.84,532.47 C348.84,495.97 353.273696,485.226034 347.84,447.47 C345.167313,428.898834 344.083979,395.982167 344.59,348.72 Z" id="virgule" fill="#8CC63E"></path>
            <path d="M388.84,192.47 C412.34,167.47 466.34,175.97 481.59,183.22 C496.84,190.47 505.09,201.22 511.84,221.97 C516.34,235.803333 518.09,252.72 517.09,272.72 C518.09,250.22 520.256667,233.136667 523.59,221.47 C528.59,203.97 536.34,188.97 557.59,181.47 C578.84,173.97 613.59,170.47 641.34,189.22 C659.84,201.72 670.34,224.97 672.84,258.97 C678.506667,313.136667 664.84,360.803333 631.84,401.97 C598.84,443.136667 559.923333,465.553712 515.09,469.221136 C482.923333,468.387045 449.423333,450.22 414.59,414.72 C362.34,361.47 361.247927,303.172738 361.947837,281.969088 C363.59,232.22 365.34,217.47 388.84,192.47 Z" id="coeur" fill="#F15976"></path>
            <path d="M840,279.24 C855.6,273 877.44,266.76 894.6,266.76 C925.02,266.76 946.08,279.24 946.08,313.56 L946.08,550.68 C946.08,585 974.16,595.14 1008.48,595.14 C1044.36,595.14 1071.66,585 1071.66,550.68 L1071.66,287.82 C1071.66,195 1026.42,155.22 949.98,155.22 C905.52,155.22 868.86,170.82 840,191.1 L840,46.02 C840,10.92 812.7,0 776.82,0 C741.72,0 714.42,10.92 714.42,46.02 L714.42,550.68 C714.42,585 741.72,595.14 776.82,595.14 C812.7,595.14 840,585 840,550.68 L840,279.24 Z" id="h" fill="#14B09E" fill-rule="nonzero"></path>
            <path d="M165.36,155.22 C65.52,155.22 7.8,206.7 7.8,284.7 C7.8,415.74 191.1,416.52 191.1,470.34 C191.1,491.4 173.16,499.98 151.32,499.98 C123.24,499.98 89.7,489.06 58.5,470.34 C53.04,467.22 46.02,464.1 36.66,464.1 C21.06,464.1 0,478.14 0,521.04 C0,569.4 83.46,595.14 157.56,595.14 C260.52,595.14 315.9,546.78 315.9,471.12 C315.9,343.2 123.24,338.52 123.24,279.24 C123.24,258.18 141.18,248.04 162.24,248.04 C191.88,248.04 202.8,259.74 209.82,279.24 C216.06,297.18 234.78,303.42 253.5,303.42 C291.72,303.42 312,287.04 312,263.64 C312,184.08 225.42,155.22 165.36,155.22 Z" id="S" fill="#14B09E" fill-rule="nonzero"></path>
        </g>
    </g>
</svg>